:SAMPLES-PER-SECOND 30
:FULLY-SPECIFIED
:DEGREES
141
root  -6.22467 34.81 -33.1359 -173.566 -15.65 177.751
RightUpLeg  -0.816901 -27.2852 -8.53888
RightLeg  6.18199 -9.56007 -0.412017
RightFoot  6.06797 0.0780124 -0.886566
RightToes  -27.744 -0.125643 -0.234435
Spine  -2.95765 3.40181 -1.13358
Spine1  -5.82756 6.45087 -1.63556
HEad  -66.9001 -9.86199 16.8927
LeftShoulder1  -1.94126e-019 -3.10601e-018 -2.51263e-017
LeftArm  3.11715 23.1568 -75.6478
LeftForeArm  31.7554 -20.6771 -3.63612
LeftHand  -0.428903 -1.52144 7.37139
RightShoulder  -4.96962e-017 0 -2.36833e-017
RightArm  16.22 27.4607 82.2837
RightForeArm  49.1666 68.1144 23.0474
RightHand  -0.37119 -2.2775 -13.6018
LeftUpLeg  -6.63925 -10.3347 3.17135
LeftLeg  3.76751 10.4979 0.0150907
LeftFoot  10.0141 -0.150223 1.95827
LeftToes  -25.3178 2.25955e-006 -3.67304e-008
142
root  -6.17005 34.8175 -33.1123 -173.516 -14.1428 178.007
RightUpLeg  -0.915965 -26.8946 -8.11168
RightLeg  5.15662 -8.53741 -0.216025
RightFoot  6.54244 0.081738 -0.849961
RightToes  -27.8857 -0.125304 -0.234132
Spine  -3.06212 3.23601 -1.08103
Spine1  -6.03284 6.12314 -1.51969
HEad  -66.1962 -10.0266 17.1893
LeftShoulder1  -1.94126e-019 -3.10601e-018 -2.51263e-017
LeftArm  -0.74524 23.1954 -76.4318
LeftForeArm  33.1537 -16.1265 -2.8883
LeftHand  -0.445202 -1.17292 8.02325
RightShoulder  -4.96962e-017 0 -2.36833e-017
RightArm  18.646 24.2766 81.0205
RightForeArm  43.0359 63.884 18.8817
RightHand  -0.261114 -2.57939 -10.429
LeftUpLeg  -6.47901 -9.08777 3.40785
LeftLeg  3.63342 10.7522 -0.00953102
LeftFoot  9.93604 -0.15216 1.99231
LeftToes  -25.4215 2.25955e-006 -3.67304e-008
143
root  -6.128 34.8235 -33.0949 -173.472 -12.7043 178.203
RightUpLeg  -1.02159 -26.5506 -7.78985
RightLeg  4.30867 -7.51767 -0.0795312
RightFoot  6.94952 0.0825463 -0.784743
RightToes  -28.006 -0.125003 -0.233867
Spine  -3.02445 3.09199 -1.05558
Spine1  -5.95998 5.86056 -1.44589
HEad  -66.3682 -10.5633 17.306
LeftShoulder1  -1.94126e-019 -3.10601e-018 -2.51263e-017
LeftArm  -3.27737 23.2429 -76.8937
LeftForeArm  33.1548 -12.808 -2.27236
LeftHand  -0.447928 -0.764283 8.57294
RightShoulder  -4.96962e-017 0 -2.36833e-017
RightArm  21.2199 20.2676 79.5971
RightForeArm  38.0121 59.2996 15.615
RightHand  -0.182702 -2.85303 -7.85775
LeftUpLeg  -6.38788 -7.99683 3.56952
LeftLeg  3.71443 11.0813 0.00575511
LeftFoot  9.75948 -0.153634 2.02295
LeftToes  -25.2392 2.25955e-006 -3.67304e-008
144
root  -6.08746 34.8275 -33.0711 -173.429 -11.2491 178.393
RightUpLeg  -1.24065 -25.8077 -7.43458
RightLeg  3.67145 -6.82713 0.00339054
RightFoot  7.31914 0.0836561 -0.737166
RightToes  -28.1075 -0.124751 -0.233649
Spine  -2.8833 3.0031 -1.03401
Spine1  -5.69058 5.73558 -1.3782
HEad  -66.8608 -11.1949 17.1985
LeftShoulder1  -1.94126e-019 -3.10601e-018 -2.51263e-017
LeftArm  -5.01204 23.5037 -77.1815
LeftForeArm  32.582 -11.0282 -1.94381
LeftHand  -0.452624 -0.584595 8.9069
RightShoulder  -4.96962e-017 0 -2.36833e-017
RightArm  22.5473 15.5553 78.667
RightForeArm  38.9978 53.8169 12.23
RightHand  -0.183642 -1.98269 -5.98847
LeftUpLeg  -6.34624 -6.85399 3.72619
LeftLeg  3.88805 11.3839 0.0401695
LeftFoot  9.62737 -0.155192 2.05916
LeftToes  -25.4197 2.25955e-006 -3.67304e-008
145
root  -6.054 34.8247 -33.0523 -173.377 -9.96237 178.594
RightUpLeg  -1.51229 -25.1348 -7.0906
RightLeg  3.25388 -6.24576 0.048463
RightFoot  7.58843 0.0828434 -0.68184
RightToes  -28.1553 -0.124558 -0.233487
Spine  -2.66628 2.91876 -0.960029
Spine1  -5.27306 5.63267 -1.20456
HEad  -67.9102 -11.9557 16.9041
LeftShoulder1  -1.94126e-019 -3.10601e-018 -2.51263e-017
LeftArm  -5.91273 23.9162 -77.4803
LeftForeArm  32.4088 -10.6361 -1.87081
LeftHand  -0.454574 -0.57552 8.95771
RightShoulder  -4.96962e-017 0 -2.36833e-017
RightArm  21.1781 10.3463 78.3316
RightForeArm  42.3258 47.4844 9.22401
RightHand  -0.154245 -1.32064 -4.24677
LeftUpLeg  -6.39587 -5.95265 3.89848
LeftLeg  4.21854 11.7425 0.108652
LeftFoot  9.38305 -0.155544 2.08136
LeftToes  -25.3572 2.25955e-006 -3.67304e-008
146
root  -6.01716 34.819 -33.0358 -173.327 -8.77078 178.767
RightUpLeg  -1.66489 -23.9028 -6.73767
RightLeg  2.67171 -6.34627 0.113497
RightFoot  7.95093 0.0896541 -0.722379
RightToes  -28.187 -0.124437 -0.233389
Spine  -2.38335 2.77342 -0.842972
Spine1  -4.72146 5.40719 -0.9444
HEad  -69.3168 -12.2704 16.2844
LeftShoulder1  -1.94126e-019 -3.10601e-018 -2.51263e-017
LeftArm  -5.88884 24.5236 -77.7911
LeftForeArm  32.3739 -11.4019 -1.99887
LeftHand  -0.438617 -0.804032 8.34637
RightShoulder  -4.96962e-017 0 -2.36833e-017
RightArm  14.4269 5.32028 78.7327
RightForeArm  43.8564 40.2642 6.76666
RightHand  -0.0562311 -1.97749 -1.57322
LeftUpLeg  -6.41562 -5.24151 4.05078
LeftLeg  4.50006 12.2108 0.172457
LeftFoot  9.14428 -0.156551 2.11901
LeftToes  -25.2388 2.25955e-006 -3.67304e-008
147
root  -5.97883 34.8143 -33.0163 -173.306 -7.55409 178.927
RightUpLeg  -2.15108 -23.5915 -6.47325
RightLeg  2.8544 -5.5002 0.0809297
RightFoot  7.95873 0.0839652 -0.59961
RightToes  -28.1504 -0.124399 -0.233364
Spine  -2.10284 2.51895 -0.711718
Spine1  -4.16954 4.95002 -0.659341
HEad  -70.7063 -11.8937 15.5815
LeftShoulder1  -1.94126e-019 -3.10601e-018 -2.51263e-017
LeftArm  -4.53632 25.3417 -77.919
LeftForeArm  32.1719 -12.8946 -2.20831
LeftHand  -0.428555 -1.17719 7.72359
RightShoulder  -4.96962e-017 0 -2.36833e-017
RightArm  2.63313 1.44074 79.7454
RightForeArm  43.3121 32.027 4.67034
RightHand  -0.0430582 -3.59988 -1.59031
LeftUpLeg  -6.36639 -4.48932 4.18649
LeftLeg  4.71864 12.6665 0.226724
LeftFoot  8.92924 -0.155576 2.15386
LeftToes  -25.18 2.25955e-006 -3.67304e-008
148
root  -5.94047 34.8125 -32.9815 -173.171 -6.20903 179.126
RightUpLeg  -2.52526 -22.0672 -6.05569
RightLeg  2.4384 -5.74609 0.126117
RightFoot  8.32341 0.0907507 -0.663339
RightToes  -28.1371 -0.124455 -0.233419
Spine  -1.89787 2.15486 -0.531522
Spine1  -3.7617 4.25549 -0.28043
HEad  -71.6592 -11.2151 14.8933
LeftShoulder1  -1.94126e-019 -3.10601e-018 -2.51263e-017
LeftArm  -2.30058 26.1442 -78.0111
LeftForeArm  32.8581 -14.2917 -2.35122
LeftHand  -0.406268 -1.55565 6.95881
RightShoulder  -4.96962e-017 0 -2.36833e-017
RightArm  -11.2047 -0.642491 79.9668
RightForeArm  46.5347 24.3889 3.63854
RightHand  -0.0261352 -5.36395 -4.39584
LeftUpLeg  -6.41977 -3.4309 4.36446
LeftLeg  4.91357 12.9484 0.275369
LeftFoot  8.74472 -0.153552 2.16179
LeftToes  -25.173 2.25955e-006 -3.67304e-008
149
root  -5.9066 34.8139 -32.9316 -172.891 -4.71657 179.317
RightUpLeg  -3.14532 -21.2184 -5.64183
RightLeg  2.14184 -5.17364 0.140287
RightFoot  8.65214 0.0885572 -0.609499
RightToes  -28.1885 -0.124617 -0.233565
Spine  -1.84771 1.77471 -0.398668
Spine1  -3.66262 3.51443 -0.00220236
HEad  -71.9591 -10.8692 14.6571
LeftShoulder1  -1.94126e-019 -3.10601e-018 -2.51263e-017
LeftArm  0.220746 26.6652 -77.9273
LeftForeArm  33.7535 -14.9544 -2.38911
LeftHand  -0.402329 -2.27653 6.29666
RightShoulder  -4.96962e-017 0 -2.36833e-017
RightArm  -24.7341 -2.17916 79.0359
RightForeArm  53.2914 18.8822 3.323
RightHand  0.076156 -6.66549 -9.25739
LeftUpLeg  -6.58308 -2.26242 4.51924
LeftLeg  5.06751 13.2688 0.317406
LeftFoot  8.58547 -0.152373 2.17837
LeftToes  -25.1776 2.25955e-006 -3.67304e-008
150
root  -5.88282 34.8182 -32.8776 -172.589 -3.01335 179.484
RightUpLeg  -3.7023 -20.1449 -5.26845
RightLeg  1.60404 -4.63895 0.169247
RightFoot  9.11115 0.0866415 -0.566716
RightToes  -28.2305 -0.124896 -0.233809
Spine  -1.87451 1.4977 -0.374573
Spine1  -3.7215 2.97356 0.0499072
HEad  -71.7487 -11.1306 15.0426
LeftShoulder1  -1.94126e-019 -3.10601e-018 -2.51263e-017
LeftArm  2.27535 26.7223 -77.6312
LeftForeArm  34.7907 -15.0358 -2.38152
LeftHand  -0.433644 -2.75738 6.40468
RightShoulder  -4.96962e-017 0 -2.36833e-017
RightArm  -31.7012 -3.95256 77.5806
RightForeArm  54.6903 15.5299 2.7943
RightHand  0.379028 -8.7876 -13.8003
LeftUpLeg  -6.66466 -0.971857 4.6128
LeftLeg  5.10585 13.6752 0.336031
LeftFoot  8.48864 -0.152844 2.22087
LeftToes  -25.1995 2.25955e-006 -3.67304e-008
151
root  -5.86548 34.8203 -32.8331 -172.385 -1.25929 179.625
RightUpLeg  -4.10192 -19.3335 -4.98702
RightLeg  0.997479 -3.7763 0.177708
RightFoot  9.63501 0.0806337 -0.467389
RightToes  -28.5555 -0.125303 -0.234159
Spine  -1.85135 1.28715 -0.396479
Spine1  -3.68219 2.56184 0.00788699
HEad  -71.3834 -11.9093 15.9099
LeftShoulder1  -1.94126e-019 -3.10601e-018 -2.51263e-017
LeftArm  2.61044 26.0335 -77.4973
LeftForeArm  36.1173 -14.0834 -2.27679
LeftHand  -0.44416 -3.0413 6.35286
RightShoulder  -4.96962e-017 0 -2.36833e-017
RightArm  -33.5869 -5.93217 75.9583
RightForeArm  52.9285 14.095 2.52699
RightHand  0.422445 -9.15936 -13.8003
LeftUpLeg  -6.60533 0.343641 4.6626
LeftLeg  5.13032 14.0887 0.351968
LeftFoot  8.34193 -0.152325 2.2501
LeftToes  -25.0481 2.25955e-006 -3.67304e-008
